<mxfile host="app.diagrams.net" agent="Mozilla/5.0 (Windows NT 10.0; Win64; x64) AppleWebKit/537.36 (KHTML, like Gecko) Chrome/135.0.0.0 Safari/537.36" version="26.2.14">
  <diagram name="第 1 页" id="tOgoO4D5vRtlMnHQdVaz">
    <mxGraphModel dx="1426" dy="751" grid="1" gridSize="10" guides="1" tooltips="1" connect="1" arrows="1" fold="1" page="1" pageScale="1" pageWidth="827" pageHeight="1169" math="0" shadow="0">
      <root>
        <mxCell id="0" />
        <mxCell id="1" parent="0" />
        <mxCell id="REG8_7wBMsoRXyQNgOD0-12" style="edgeStyle=orthogonalEdgeStyle;rounded=0;orthogonalLoop=1;jettySize=auto;html=1;" edge="1" parent="1" source="REG8_7wBMsoRXyQNgOD0-1" target="REG8_7wBMsoRXyQNgOD0-3">
          <mxGeometry relative="1" as="geometry">
            <Array as="points">
              <mxPoint x="80" y="200" />
              <mxPoint x="80" y="200" />
            </Array>
          </mxGeometry>
        </mxCell>
        <mxCell id="REG8_7wBMsoRXyQNgOD0-1" value="PlayerManager" style="whiteSpace=wrap;html=1;aspect=fixed;" vertex="1" parent="1">
          <mxGeometry x="30" y="10" width="100" height="100" as="geometry" />
        </mxCell>
        <mxCell id="REG8_7wBMsoRXyQNgOD0-13" value="" style="edgeStyle=orthogonalEdgeStyle;rounded=0;orthogonalLoop=1;jettySize=auto;html=1;" edge="1" parent="1" source="REG8_7wBMsoRXyQNgOD0-3" target="REG8_7wBMsoRXyQNgOD0-7">
          <mxGeometry relative="1" as="geometry" />
        </mxCell>
        <mxCell id="REG8_7wBMsoRXyQNgOD0-14" value="" style="edgeStyle=orthogonalEdgeStyle;rounded=0;orthogonalLoop=1;jettySize=auto;html=1;" edge="1" parent="1" source="REG8_7wBMsoRXyQNgOD0-3" target="REG8_7wBMsoRXyQNgOD0-7">
          <mxGeometry relative="1" as="geometry" />
        </mxCell>
        <mxCell id="REG8_7wBMsoRXyQNgOD0-16" style="edgeStyle=orthogonalEdgeStyle;rounded=0;orthogonalLoop=1;jettySize=auto;html=1;" edge="1" parent="1" source="REG8_7wBMsoRXyQNgOD0-3" target="REG8_7wBMsoRXyQNgOD0-6">
          <mxGeometry relative="1" as="geometry" />
        </mxCell>
        <mxCell id="REG8_7wBMsoRXyQNgOD0-3" value="std::vector&amp;lt;IPlayer *&amp;gt;" style="ellipse;whiteSpace=wrap;html=1;" vertex="1" parent="1">
          <mxGeometry x="10" y="210" width="150" height="80" as="geometry" />
        </mxCell>
        <mxCell id="REG8_7wBMsoRXyQNgOD0-21" value="" style="edgeStyle=orthogonalEdgeStyle;rounded=0;orthogonalLoop=1;jettySize=auto;html=1;" edge="1" parent="1" source="REG8_7wBMsoRXyQNgOD0-4" target="REG8_7wBMsoRXyQNgOD0-20">
          <mxGeometry relative="1" as="geometry" />
        </mxCell>
        <mxCell id="REG8_7wBMsoRXyQNgOD0-4" value="IPlayer&amp;nbsp;" style="rounded=1;whiteSpace=wrap;html=1;" vertex="1" parent="1">
          <mxGeometry x="490" y="220" width="120" height="60" as="geometry" />
        </mxCell>
        <mxCell id="REG8_7wBMsoRXyQNgOD0-8" style="edgeStyle=orthogonalEdgeStyle;rounded=0;orthogonalLoop=1;jettySize=auto;html=1;entryX=0;entryY=0.5;entryDx=0;entryDy=0;" edge="1" parent="1" source="REG8_7wBMsoRXyQNgOD0-6" target="REG8_7wBMsoRXyQNgOD0-4">
          <mxGeometry relative="1" as="geometry" />
        </mxCell>
        <mxCell id="REG8_7wBMsoRXyQNgOD0-6" value="LivePlayerWnd" style="rounded=0;whiteSpace=wrap;html=1;" vertex="1" parent="1">
          <mxGeometry x="240" y="180" width="120" height="60" as="geometry" />
        </mxCell>
        <mxCell id="REG8_7wBMsoRXyQNgOD0-9" style="edgeStyle=orthogonalEdgeStyle;rounded=0;orthogonalLoop=1;jettySize=auto;html=1;entryX=0;entryY=0.5;entryDx=0;entryDy=0;" edge="1" parent="1" source="REG8_7wBMsoRXyQNgOD0-7" target="REG8_7wBMsoRXyQNgOD0-4">
          <mxGeometry relative="1" as="geometry" />
        </mxCell>
        <mxCell id="REG8_7wBMsoRXyQNgOD0-7" value="FilePlayerWnd" style="rounded=0;whiteSpace=wrap;html=1;" vertex="1" parent="1">
          <mxGeometry x="240" y="270" width="120" height="60" as="geometry" />
        </mxCell>
        <mxCell id="REG8_7wBMsoRXyQNgOD0-17" value="WebsocketServer" style="whiteSpace=wrap;html=1;aspect=fixed;" vertex="1" parent="1">
          <mxGeometry x="210" y="10" width="100" height="100" as="geometry" />
        </mxCell>
        <mxCell id="REG8_7wBMsoRXyQNgOD0-18" value="" style="endArrow=classic;startArrow=classic;html=1;rounded=0;exitX=1;exitY=0.5;exitDx=0;exitDy=0;" edge="1" parent="1" source="REG8_7wBMsoRXyQNgOD0-1">
          <mxGeometry width="50" height="50" relative="1" as="geometry">
            <mxPoint x="160" y="110" as="sourcePoint" />
            <mxPoint x="210" y="60" as="targetPoint" />
            <Array as="points" />
          </mxGeometry>
        </mxCell>
        <mxCell id="REG8_7wBMsoRXyQNgOD0-19" value="CMainFrame&lt;div&gt;（playerMode）&lt;/div&gt;&lt;div&gt;(PlayerUI)&lt;/div&gt;" style="whiteSpace=wrap;html=1;aspect=fixed;" vertex="1" parent="1">
          <mxGeometry x="414" y="10" width="100" height="100" as="geometry" />
        </mxCell>
        <mxCell id="REG8_7wBMsoRXyQNgOD0-20" value="Chrome Legacy Window&lt;div&gt;(Player)&lt;/div&gt;" style="whiteSpace=wrap;html=1;aspect=fixed;" vertex="1" parent="1">
          <mxGeometry x="580" y="10" width="100" height="100" as="geometry" />
        </mxCell>
        <mxCell id="REG8_7wBMsoRXyQNgOD0-22" style="edgeStyle=orthogonalEdgeStyle;rounded=0;orthogonalLoop=1;jettySize=auto;html=1;entryX=0.59;entryY=1;entryDx=0;entryDy=0;entryPerimeter=0;" edge="1" parent="1" source="REG8_7wBMsoRXyQNgOD0-4" target="REG8_7wBMsoRXyQNgOD0-19">
          <mxGeometry relative="1" as="geometry" />
        </mxCell>
        <mxCell id="REG8_7wBMsoRXyQNgOD0-24" value="parent" style="text;html=1;align=center;verticalAlign=middle;whiteSpace=wrap;rounded=0;" vertex="1" parent="1">
          <mxGeometry x="520" y="130" width="60" height="30" as="geometry" />
        </mxCell>
      </root>
    </mxGraphModel>
  </diagram>
</mxfile>
